<?xml version="1.0" encoding="UTF-8" standalone="no"?>
<svg
   xmlns:svg="http://www.w3.org/2000/svg"
   xmlns="http://www.w3.org/2000/svg"
   version="1.1"
   viewBox="0 0 316 284">
  <g fill-rule="evenodd">
    <path
       d="m220.03 261.27c6.137-1.214 12.097 2.776 13.312 8.913 1.214 6.137-2.776 12.096-8.914 13.312-6.136 1.214-12.097-2.776-13.311-8.913-1.215-6.137 2.775-12.098 8.913-13.312zm0.525 2.651c-4.673 0.924-7.712 5.463-6.787 10.136s5.463 7.711 10.136 6.786 7.711-5.463 6.787-10.136c-0.925-4.672-5.464-7.71-10.136-6.786z"
       fill="#57A8DD" />
    <path
       d="m151.4 138.34c8.615-2.309 17.471 2.803 19.78 11.419 2.308 8.615-2.805 17.471-11.419 19.778-8.617 2.309-17.472-2.803-19.78-11.418-2.308-8.617 2.804-17.471 11.419-19.779zm1.045 3.899c-6.461 1.731-10.295 8.373-8.564 14.835 1.731 6.461 8.373 10.295 14.835 8.563 6.46-1.73 10.295-8.372 8.564-14.833-1.731-6.463-8.373-10.296-14.835-8.565z"
       fill="#cccccc" />
    <path
       d="m177.45 98.803c6.793-1.819 13.774 2.212 15.594 9.004 1.819 6.793-2.211 13.775-9.003 15.595s-13.774-2.211-15.593-9.003c-1.821-6.792 2.21-13.775 9.002-15.596zm0.824 3.075c-5.094 1.366-8.117 6.603-6.752 11.697s6.601 8.117 11.695 6.752 8.117-6.601 6.752-11.696c-1.365-5.094-6.6-8.117-11.695-6.753z"
       fill="#FB970D" />
    <path
       d="m79.569 73.655c7.299-2.727 15.427 0.98 18.154 8.28 2.726 7.3-0.981 15.428-8.28 18.153-7.3 2.727-15.427-0.98-18.154-8.28-2.727-7.299 0.981-15.426 8.28-18.153zm2.198 2.996c-5.645 1.512-8.995 7.314-7.482 12.959 1.512 5.645 7.315 8.994 12.96 7.482 5.644-1.512 8.993-7.314 7.482-12.959-1.512-5.645-7.315-8.995-12.96-7.482z"
       fill="#5BA921" />
    <path
       d="m129.64 44.793c12.822-3.436 26.002 4.173 29.438 16.995 3.434 12.823-4.175 26.002-16.996 29.436-12.822 3.437-26.001-4.172-29.436-16.994-3.437-12.822 4.172-26.001 16.994-29.437zm1.555 5.804c-9.616 2.577-15.323 12.461-12.746 22.077 2.577 9.617 12.461 15.324 22.078 12.747 9.615-2.576 15.323-12.46 12.747-22.077-2.577-9.617-12.462-15.324-22.079-12.747z"
       fill="#5BA921" />
    <path
       d="m279.06 170.82c17.269-10.424 18.07-26.814 10.903-38.686l5.546 1.085c2.476 1.895 5.773 2.662 9.019 1.792l0.057-0.016 5.547 1.086c-11.114 8.295-16.55 23.778-4.484 39.942l-11.016-2.155c-1.454-0.528-2.996-0.837-4.577-0.896l-10.995-2.152"
       fill="#FB970D" />
    <path
       d="m289.01 119.68c5.288-12.821-3.341-33.566-16.161-38.854l5.855-2.436c0.705-0.039 1.415-0.151 2.124-0.341 1.645-0.44 3.092-1.252 4.275-2.32l5.853-2.435c-5.287 12.82 3.342 33.565 16.162 38.853l-5.855 2.436c-0.704 0.039-1.415 0.151-2.124 0.341-1.645 0.441-3.093 1.252-4.275 2.321l-5.854 2.435"
       fill="#5BA921" />
    <path
       d="m264.56 70.798c-2.79-13.584-17.478-27.046-37.236-22.99l6.499-8.926c1.221-1.193 2.229-2.581 2.985-4.098l6.508-8.94c2.205 20.051 19.527 29.896 33.312 28.38l-3.341 4.589c-2.869 1.512-4.836 4.274-5.387 7.397l-3.34 4.588"
       fill="#cccccc" />
    <path
       d="m206.38 39.093c-11.044-16.879-44.233-20.593-55.837-13l0.961-5.693c1.673-2.423 2.312-5.536 1.49-8.603l-0.024-0.083 0.961-5.693c8.469 10.982 41.038 18.372 57.011 6.055l-1.766 10.457c-0.751 1.914-1.118 3.991-1.032 6.114l-1.764 10.446"
       fill="#57A8DD" />
    <path
       d="m136.87 26.951c-12.462-6.082-56.577 5.76-65.425 23.887l-3.038-9.9c-0.067-0.95-0.224-1.907-0.48-2.862-0.354-1.32-0.873-2.553-1.527-3.681l-3.036-9.896c17.492 10.046 60.657-4.892 67.563-16.917l1.711 5.577c-0.169 1.308-0.091 2.669 0.271 4.021 0.431 1.609 1.217 3.027 2.25 4.195l1.711 5.576"
       fill="#FB970D" />
    <path
       d="m37.373 145.77c7.828 7.546 16.693 11.55 30.108-2.364l-1.715 25.968c-11.468-15.558-20.783-12.752-29.534-6.302l0.285-4.325c1.354-1.979 1.869-4.513 1.2-7.01-0.156-0.58-0.368-1.13-0.629-1.645l0.285-4.322"
       fill="#E75627" />
    <path
       d="m81.526 195.89c3.935-8.059 3.348-14.633-8.373-20.356l25.598-6.883c-7.271 10.829-4.479 16.812 2.965 21.809l-5.255 1.413c-1.645-0.404-3.412-0.412-5.164 0.058-1.759 0.471-3.291 1.366-4.516 2.546l-5.255 1.413"
       fill="#57A8DD" />
    <path
       d="m81.768 137.23c17.085-0.199 21.196-7.949 21.059-19.696l4.182 3.625c1.269 3.258 4.06 5.575 7.315 6.34l4.18 3.622c-11.647 1.535-18.733 6.705-16.503 23.646l-9.304-8.065c-0.504-0.503-1.042-0.968-1.608-1.393l-9.321-8.079"
       fill="#cccccc" />
    <path
       d="m209.9 68.889c7.776-7.627 10.053-15.404-1.04-26.716l12.882 0.927c0.297 0.03 0.595 0.053 0.894 0.065l12.856 0.925c-12.599 9.607-11.459 17.63-4.855 26.292l-5.496-0.396c-2.364-1.484-5.315-2.02-8.224-1.24-0.53 0.142-1.039 0.323-1.526 0.538l-5.491-0.395"
       fill="#E75627" />
    <path
       d="m209.16 87.911c-9.121-10.447-39.375-17.604-57.484-1.793l1.891-14.698c0.143-0.739 0.241-1.49 0.29-2.251l1.889-14.674c13.515 19.882 44.595 20.621 56.064 12.826l-0.706 5.481c-1.711 2.434-2.373 5.58-1.542 8.679 0.087 0.324 0.189 0.64 0.303 0.948l-0.705 5.482"
       fill="#5BA921" />
    <path
       d="m70.499 85.147c1.528-12.401-1.923-20.953-19.648-23.136l9.664-6.716c1-0.54 1.924-1.186 2.76-1.918l9.665-6.716c-4.134 17.373 2.678 23.589 14.833 26.482l-4.661 3.238c-0.448 0.06-0.897 0.15-1.345 0.27-2.951 0.791-5.275 2.754-6.604 5.255l-4.664 3.241"
       fill="#5BA921" />
    <path
       d="m19.933 147.84c4.303-6.745 6.623-14.763-8.149-24.187l30.071-2.552c-12.973 11.778-9.334 19.291-3.956 25.214l-4.011 0.34c-1.91-1.15-4.267-1.553-6.592-0.931-1.282 0.344-2.416 0.963-3.357 1.776l-4.006 0.34"
       fill="#cccccc"/>
    <path
       d="m17.427 79.08c18.394-6.014 21.598-15.889 16.717-30.82l7.674 3.56c2.826 3.302 6.995 5.277 11.418 5.298l7.675 3.561c-14.554 5.914-20.025 14.736-12.739 32.666l-11.652-5.407c-2.189-1.683-4.737-2.873-7.457-3.459l-11.636-5.399"
       fill="#57A8DD"/>
    <path
       d="m239.66 105.49c25.9-5.788 27.969-20.918 24.945-34.452l4.663 2.405c2.004 3.277 5.705 5.217 9.586 4.945l4.666 2.406c-12.782 5.382-23.91 15.838-13.612 40.298l-30.248-15.602"
       fill="#57A8DD"/>
    <path
       d="m230.56 153.35c-21.968-14.89-52.546-3.723-61.609 9.648l-1.579-6.291c0.445-1.886 0.444-3.905-0.093-5.907-0.5-1.869-1.413-3.518-2.613-4.877l-1.579-6.292c14.303 7.508 46.531 2.915 58.865-20.583l3.794 15.117c0.112 0.788 0.272 1.579 0.483 2.368 0.155 0.576 0.334 1.139 0.535 1.689l3.796 15.128"
       fill="#cccccc"/>
    <path
       d="m172.75 121.01c-9.911-7.998-36.553-5.721-45.261 5.072l-0.635-6.478c0.347-1.576 0.333-3.256-0.114-4.922-0.136-0.509-0.309-0.999-0.512-1.469l-0.635-6.478c10.637 8.898 37.215 5.962 45.385-3.807l0.555 5.659c-0.432 1.579-0.464 3.289-0.01 4.984 0.168 0.626 0.395 1.221 0.672 1.781l0.555 5.658"
       fill="#FB970D" />
    <path
       d="m139.36 1.097c7.397-1.982 15 2.407 16.981 9.804 1.981 7.396-2.407 14.998-9.804 16.98-7.396 1.981-14.999-2.407-16.979-9.804-1.983-7.396 2.407-14.998 9.802-16.98zm0.897 3.348c-5.546 1.486-8.838 7.188-7.352 12.735 1.486 5.548 7.188 8.839 12.735 7.353 5.548-1.487 8.839-7.188 7.353-12.736-1.486-5.547-7.188-8.839-12.736-7.352z"
       fill="#FB970D" />
    <path
       d="m218.04 8.57c10.758-2.882 21.816 3.502 24.7 14.26 2.881 10.758-3.503 21.816-14.261 24.698-10.758 2.883-21.817-3.501-24.699-14.259s3.502-21.816 14.26-24.699zm1.305 4.87c-8.069 2.162-12.857 10.455-10.695 18.524s10.455 12.857 18.524 10.695 12.857-10.456 10.696-18.524c-2.163-8.069-10.456-12.857-18.525-10.695z"
       fill="#57A8DD"/>
    <path
       d="m216.02 65.398c7.397-1.982 14.999 2.408 16.98 9.804 1.982 7.396-2.407 14.998-9.803 16.979-7.396 1.983-14.999-2.406-16.98-9.803-1.982-7.396 2.407-14.998 9.803-16.98zm0.897 3.348c-5.547 1.486-8.839 7.188-7.352 12.735 1.486 5.547 7.188 8.839 12.735 7.352 5.547-1.486 8.839-7.187 7.352-12.734-1.485-5.547-7.187-8.839-12.735-7.353z"
       fill="#E75627" />
    <path
       d="m274.55 54.617c7.397-1.982 14.999 2.407 16.98 9.804 1.982 7.396-2.407 14.998-9.803 16.98-7.397 1.982-14.999-2.407-16.981-9.804-1.981-7.396 2.408-14.998 9.804-16.98zm0.897 3.348c-5.547 1.486-8.839 7.188-7.353 12.735 1.487 5.548 7.188 8.839 12.736 7.352 5.547-1.485 8.839-7.187 7.352-12.734-1.486-5.548-7.187-8.839-12.735-7.353z"
       fill="#cccccc" />
    <path
       d="m298.24 111.58c7.396-1.982 14.999 2.407 16.98 9.804 1.982 7.396-2.407 14.998-9.803 16.979-7.397 1.982-14.999-2.407-16.981-9.802-1.982-7.397 2.408-14.999 9.804-16.981zm0.897 3.348c-5.547 1.486-8.839 7.188-7.353 12.735 1.487 5.547 7.188 8.838 12.736 7.352 5.547-1.486 8.838-7.188 7.352-12.734-1.486-5.548-7.188-8.84-12.735-7.353z"
       fill="#5BA921"/>
    <path
       d="m238.58 105.76c14.156-3.793 28.704 4.605 32.497 18.761 3.791 14.153-4.608 28.702-18.762 32.494-14.155 3.792-28.703-4.606-32.496-18.76-3.791-14.155 4.608-28.703 18.761-32.495zm1.717 6.406c-10.615 2.844-16.914 13.756-14.071 24.372 2.845 10.616 13.756 16.914 24.372 14.07 10.615-2.844 16.915-13.756 14.072-24.371-2.845-10.616-13.757-16.915-24.373-14.071z"
       fill="#57A8DD" />
    <path
       d="m113.1 103.98c7.396-1.982 15 2.406 16.981 9.804 1.982 7.396-2.408 14.998-9.804 16.98-7.396 1.981-14.999-2.407-16.98-9.803-1.982-7.397 2.407-14.999 9.803-16.981zm0.897 3.348c-5.547 1.486-8.838 7.188-7.352 12.735s7.188 8.839 12.735 7.353 8.839-7.188 7.353-12.735c-1.486-5.548-7.189-8.84-12.736-7.353z"
       fill="#cccccc" />
    <path
       d="m48.097 22.512c10.758-2.883 21.816 3.501 24.7 14.259 2.881 10.759-3.504 21.816-14.261 24.699-10.758 2.883-21.816-3.501-24.698-14.26-2.884-10.758 3.501-21.816 14.259-24.698zm1.305 4.87c-8.069 2.162-12.857 10.455-10.694 18.523 2.161 8.069 10.455 12.857 18.523 10.695s12.856-10.455 10.695-18.524c-2.162-8.068-10.456-12.856-18.524-10.694z"
       fill="#57A8DD" />
    <path
       d="m18.719 78.703c13.254-3.552 26.877 4.313 30.428 17.566 3.55 13.255-4.314 26.878-17.568 30.427-13.252 3.552-26.875-4.312-30.427-17.566-3.551-13.255 4.315-26.876 17.567-30.427zm1.607 5.999c-9.939 2.663-15.838 12.88-13.175 22.82 2.664 9.941 12.882 15.839 22.821 13.175 9.94-2.662 15.838-12.879 13.176-22.82-2.664-9.94-12.881-15.839-22.822-13.175z"
       fill="#cccccc" />
    <path
       d="m76.783 137.92c10.759-2.882 21.817 3.502 24.699 14.26s-3.502 21.816-14.26 24.698c-10.758 2.884-21.816-3.5-24.698-14.258-2.883-10.759 3.501-21.817 14.259-24.7zm1.305 4.87c-8.069 2.162-12.857 10.455-10.695 18.525 2.162 8.068 10.455 12.856 18.524 10.693 8.068-2.161 12.857-10.455 10.695-18.523-2.162-8.069-10.455-12.856-18.524-10.695z"
       fill="#57A8DD" />
    <path
       d="m26.562 142.98c6.052-1.621 12.272 1.97 13.894 8.021 1.621 6.051-1.97 12.271-8.022 13.894-6.051 1.62-12.271-1.971-13.892-8.022-1.622-6.051 1.969-12.272 8.02-13.893zm0.734 2.739c-4.538 1.216-7.232 5.882-6.015 10.42 1.216 4.539 5.881 7.232 10.419 6.016 4.539-1.217 7.232-5.881 6.017-10.42-1.216-4.538-5.882-7.232-10.421-6.016z"
       fill="#E75627" />
    <path
       d="m90.4 188.58c7.396-1.982 14.998 2.406 16.98 9.804 1.981 7.396-2.408 14.998-9.804 16.978-7.396 1.983-14.999-2.405-16.98-9.801-1.983-7.398 2.407-15 9.804-16.981zm0.897 3.348c-5.548 1.485-8.84 7.187-7.353 12.735 1.486 5.547 7.188 8.838 12.735 7.352s8.839-7.187 7.353-12.734c-1.486-5.549-7.188-8.84-12.735-7.353z"
       fill="#5BA921" />
    <path
       d="m212.02 267.46c4.923-10.206 2.753-24.359-12.159-31.553l21.334-6.298c-8.614 14.139-2.751 27.202 6.926 33.098l-4.155 1.226c-1.094-0.226-2.251-0.241-3.415-0.011-1.717 0.34-3.213 1.168-4.373 2.31l-4.158 1.228"
       fill="#57A8DD" />
    <path
       d="m281.16 206.41c-18.348-8.314-52.187 6.336-59.022 21.417l-2.721-6.813c1e-3 -0.797-0.076-1.607-0.237-2.42-0.474-2.395-1.61-4.49-3.18-6.132l-2.723-6.814c15.344 6.22 49.962-6.483 57.528-25.152l3.621 9.061c0.047 0.487 0.119 0.978 0.216 1.468 0.477 2.41 1.503 4.572 2.92 6.382l3.598 9.003"
       fill="#E75627" />
    <path
       d="m203.85 204.76c8.967-1.776 17.677 4.054 19.451 13.024 1.775 8.967-4.057 17.675-13.024 19.451-8.968 1.774-17.677-4.056-19.451-13.023-1.775-8.97 4.057-17.676 13.024-19.452zm0.815 4.116c-6.695 1.325-11.047 7.825-9.723 14.52 1.325 6.695 7.826 11.047 14.521 9.722 6.694-1.324 11.047-7.826 9.722-14.52-1.325-6.695-7.826-11.048-14.52-9.722z"
       fill="#E75627" />
    <path
       d="m284.26 168.61c10.758-2.881 21.816 3.501 24.7 14.26 2.881 10.758-3.503 21.816-14.261 24.698-10.759 2.884-21.817-3.501-24.699-14.26-2.882-10.758 3.502-21.815 14.26-24.698zm1.305 4.87c-8.069 2.162-12.857 10.455-10.695 18.523 2.161 8.07 10.455 12.858 18.524 10.695 8.069-2.162 12.856-10.455 10.696-18.523-2.163-8.07-10.457-12.856-18.525-10.695z"
       fill="#FB970D" />
    <path
       d="m219.74 165.46c7.173-2.731 15.203 0.87 17.934 8.045 2.73 7.173-0.872 15.203-8.046 17.934-7.175 2.729-15.204-0.872-17.934-8.045-2.73-7.176 0.872-15.203 8.046-17.934zm1.235 3.247c-5.38 2.048-8.081 8.069-6.033 13.45 2.047 5.38 8.069 8.081 13.45 6.034 5.38-2.048 8.082-8.07 6.034-13.45-2.048-5.382-8.071-8.082-13.451-6.034z"
       fill="#FB970D" />
    <path
       d="m188.14 242.58c7.309-2.345 15.136 1.678 17.481 8.989 2.344 7.308-1.681 15.135-8.989 17.479-7.31 2.344-15.136-1.679-17.48-8.988-2.345-7.31 1.68-15.135 8.988-17.48zm1.062 3.308c-5.482 1.759-8.5 7.627-6.742 13.11 1.758 5.482 7.628 8.5 13.11 6.742 5.482-1.759 8.5-7.628 6.742-13.11-1.759-5.483-7.629-8.501-13.11-6.742z"
       fill="#cccccc" />
    <path
       d="m167.13 184.4c17.855 9.493 38.757-0.205 45.284-12.479l1.912 5.383c-0.178 1.593 0.012 3.251 0.621 4.851 0.55 1.445 1.386 2.696 2.42 3.714l1.911 5.384c-12.806-5.411-35.144 0.244-43.014 18.872l-3.658-10.303c-0.162-0.993-0.426-1.984-0.798-2.961-0.287-0.754-0.629-1.472-1.017-2.151l-3.661-10.31"
       fill="#FB970D" />
    <path
       d="m177.32 207.49c-5.224 19.536 5.232 31.302 18.662 34.894l-4.748 3.069c-0.676 0.076-1.355 0.22-2.027 0.435-2.527 0.811-4.529 2.495-5.782 4.611l-4.754 3.073c2.242-13.72-4.191-28.087-24.148-31.349l9.49-6.133c1.423-0.639 2.708-1.48 3.831-2.476l9.476-6.124"
       fill="#cccccc" />
    <path
       d="m142.59 215.76c-13.512-15.045-28.957-12.706-39.301-3.417l0.023-5.658c1.188-2.362 1.485-5.175 0.608-7.89-0.158-0.49-0.351-0.961-0.572-1.411l0.022-5.654c10.27 9.369 25.697 11.829 39.326-3.11l-0.044 11.286c-0.233 1.486-0.247 3.02-0.018 4.559l-0.044 11.295"
       fill="#5BA921" />
    <path
       d="m151.42 183.02c10.626-3.432 22.021 2.396 25.455 13.021 3.431 10.624-2.399 22.02-13.023 25.452-10.624 3.434-22.02-2.396-25.452-13.02-3.433-10.625 2.397-22.02 13.02-25.453zm1.555 4.809c-7.968 2.574-12.341 11.121-9.766 19.09 2.574 7.968 11.121 12.34 19.09 9.765 7.967-2.574 12.34-11.121 9.766-19.089-2.575-7.969-11.121-12.34-19.09-9.766z"
       fill="#cccccc" />
  </g>
</svg>
