{"accessors":{"accessor_0":{"bufferView":"bufferView_0","count":5184,"byteOffset":0,"componentType":5126,"type":"VEC3","min":[0.17483000457286835,0.1972000002861023,0.27458998560905457],"max":[-0.1832900047302246,0.09648499637842178,0.17407000064849854]},"accessor_1":{"bufferView":"bufferView_0","count":5184,"byteOffset":62208,"componentType":5126,"type":"VEC3","min":[0.9960899949073792,0.9936000108718872,0.882669985294342],"max":[-0.9960899949073792,-0.9936000108718872,-0.9952999949455261]},"accessor_2":{"bufferView":"bufferView_1","count":192,"byteOffset":0,"componentType":5126,"type":"VEC3","min":[0.13112999498844147,0.1668899953365326,0.27566999197006226],"max":[-0.150409996509552,0.14327000081539154,0.2699899971485138]},"accessor_3":{"bufferView":"bufferView_1","count":192,"byteOffset":2304,"componentType":5126,"type":"VEC3","min":[-0.049795001745224,0.22624999284744263,0.9900299906730652],"max":[-0.16943000257015228,0.10760000348091125,0.9659500122070312]},"accessor_4":{"bufferView":"bufferView_2","count":384,"byteOffset":0,"componentType":5126,"type":"VEC3","min":[0.1425500065088272,0.177279993891716,0.27566999197006226],"max":[-0.16109000146389008,0.13175000250339508,0.26447001099586487]},"accessor_5":{"bufferView":"bufferView_2","count":384,"byteOffset":4608,"componentType":5126,"type":"VEC3","min":[0.1836400032043457,0.44628000259399414,0.9952999949455261],"max":[-0.3937300145626068,-0.12635000050067902,0.8791199922561646]},"accessor_6":{"bufferView":"bufferView_3","count":11880,"byteOffset":0,"componentType":5126,"type":"VEC3","min":[0.3776699900627136,0.5882200002670288,0.4172999858856201],"max":[-0.3928700089454651,-0.46911999583244324,-0.4959399998188019]},"accessor_7":{"bufferView":"bufferView_3","count":11880,"byteOffset":142560,"componentType":5126,"type":"VEC3","min":[0.9987499713897705,0.9986900091171265,0.998199999332428],"max":[-0.9987499713897705,-0.9958199858665466,-0.9982600212097168]}},"asset":{"generator":"Archilogic 170901-165848-3ec6bb6","version":"1.0.2"},"extensionsUsed":["KHR_materials_common"],"buffers":{"buffer_0":{"byteLength":124416,"type":"arraybuffer","uri":"head_0.bin"},"buffer_1":{"byteLength":4608,"type":"arraybuffer","uri":"head_1.bin"},"buffer_2":{"byteLength":9216,"type":"arraybuffer","uri":"head_2.bin"},"buffer_3":{"byteLength":285120,"type":"arraybuffer","uri":"head_3.bin"}},"bufferViews":{"bufferView_0":{"buffer":"buffer_0","byteLength":124416,"byteOffset":0,"target":34962},"bufferView_1":{"buffer":"buffer_1","byteLength":4608,"byteOffset":0,"target":34962},"bufferView_2":{"buffer":"buffer_2","byteLength":9216,"byteOffset":0,"target":34962},"bufferView_3":{"buffer":"buffer_3","byteLength":285120,"byteOffset":0,"target":34962}},"materials":{"Material_006":{"name":"Material_006","extensions":{"AL_materials":{},"KHR_materials_common":{"technique":"PHONG","values":{"diffuse":[0.373,0.133,0.047,1],"specular":[0.941,0.584,0.478,1],"shininess":[5],"transparent":true}}}},"Material_004":{"name":"Material_004","extensions":{"AL_materials":{},"KHR_materials_common":{"technique":"PHONG","values":{"diffuse":[1,1,1,1],"specular":[0.906,0.824,0.651,1],"shininess":[6],"transparent":true}}}},"Material_005":{"name":"Material_005","extensions":{"AL_materials":{},"KHR_materials_common":{"technique":"PHONG","values":{"diffuse":[0,0,0,1],"specular":[0.659,0.659,0.659,1],"shininess":[4],"transparent":true}}}},"basic":{"name":"basic","extensions":{"AL_materials":{},"KHR_materials_common":{"technique":"PHONG","values":{"diffuse":[0.98,0.796,0.62,1],"specular":[0.796,0.337,0.322,1],"shininess":[9],"transparent":true}}}}},"meshes":{"mesh_0":{"primitives":[{"attributes":{"POSITION":"accessor_0","NORMAL":"accessor_1"},"material":"Material_004"}]},"mesh_1":{"primitives":[{"attributes":{"POSITION":"accessor_2","NORMAL":"accessor_3"},"material":"Material_005"}]},"mesh_2":{"primitives":[{"attributes":{"POSITION":"accessor_4","NORMAL":"accessor_5"},"material":"Material_006"}]},"mesh_3":{"primitives":[{"attributes":{"POSITION":"accessor_6","NORMAL":"accessor_7"},"material":"basic"}]}},"nodes":{"node_0":{"children":[],"translation":[0,0,0],"meshes":["mesh_0","mesh_1","mesh_2","mesh_3"]}},"scenes":{"defaultScene":{"nodes":["node_0"]}},"scene":"defaultScene"}
